<?xml version="1.0" encoding="UTF-8"?>
<svg id="Vrstva_1" xmlns="http://www.w3.org/2000/svg" width="5.9mm" height="5.9mm" version="1.1" viewBox="0 0 16.7 16.7">
  <!-- Generator: Adobe Illustrator 29.3.1, SVG Export Plug-In . SVG Version: 2.1.0 Build 151)  -->
  <path d="M9.8,8.4l6.6-6.6c.4-.4.4-1,0-1.4s-1-.4-1.4,0l-6.6,6.6L1.7.3C1.3,0,.7,0,.3.3S0,1.3.3,1.7l6.6,6.6L.3,15c-.4.4-.4,1,0,1.4s.5.3.7.3.5,0,.7-.3l6.6-6.6,6.6,6.6c.2.2.5.3.7.3s.5,0,.7-.3c.4-.4.4-1,0-1.4l-6.6-6.6Z" fill="#cdb991"/>
</svg>
