<?xml version="1.0" encoding="UTF-8" standalone="no"?><!DOCTYPE svg PUBLIC "-//W3C//DTD SVG 1.1//EN" "http://www.w3.org/Graphics/SVG/1.1/DTD/svg11.dtd"><svg width="100%" height="100%" viewBox="0 0 1590 1590" version="1.1" xmlns="http://www.w3.org/2000/svg" xmlns:xlink="http://www.w3.org/1999/xlink" xml:space="preserve" xmlns:serif="http://www.serif.com/" style="fill-rule:evenodd;clip-rule:evenodd;stroke-linejoin:round;stroke-miterlimit:2;"><animateTransform
      attributeName="transform"
      attributeType="XML"
      type="rotate"
      from="0"
      to="360"
      dur="30s"
      repeatCount="indefinite" /><g transform="matrix(3.125,0,0,3.125,73.4375,7.8125)"><g transform="matrix(0.962712,-0.270527,0.270527,0.962712,-28.4125,45.7014)"><text x="151.579px" y="125.919px" style="font-family:'DeiGratia', fantasy;font-size:74.667px;">S</text></g><g transform="matrix(0.936081,0.351784,-0.351784,0.936081,57.4927,-86.2471)"><text x="266.082px" y="115.085px" style="font-family:'DeiGratia', fantasy;font-size:74.667px;">t</text></g><g transform="matrix(0.861231,0.508214,-0.508214,0.861231,103.184,-130.688)"><text x="290.901px" y="123.601px" style="font-family:'DeiGratia', fantasy;font-size:74.667px;">o</text></g><g transform="matrix(0.731811,0.681508,-0.681508,0.731811,182.287,-180.865)"><text x="320.946px" y="141.177px" style="font-family:'DeiGratia', fantasy;font-size:74.667px;">l</text></g><g transform="matrix(0.604938,0.796273,-0.796273,0.604938,261.538,-208.956)"><text x="341.351px" y="159.095px" style="font-family:'DeiGratia', fantasy;font-size:74.667px;">e</text></g><g transform="matrix(0.438915,0.898529,-0.898529,0.438915,369.127,-220.882)"><text x="361.425px" y="185.121px" style="font-family:'DeiGratia', fantasy;font-size:74.667px;">t</text></g><g transform="matrix(0.259925,0.965629,-0.965629,0.259925,478.05,-206.938)"><text x="374.029px" y="208.404px" style="font-family:'DeiGratia', fantasy;font-size:74.667px;">รก</text></g><g transform="matrix(-0.193366,0.981127,-0.981127,-0.193366,738.213,-40.0283)"><text x="385.561px" y="283.447px" style="font-family:'DeiGratia', fantasy;font-size:74.667px;">v</text></g><g transform="matrix(-0.456512,0.889717,-0.889717,-0.456512,838.129,137.56)"><text x="377.05px" y="324.767px" style="font-family:'DeiGratia', fantasy;font-size:74.667px;">รก</text></g><g transform="matrix(-0.646208,0.763161,-0.763161,-0.646208,865.501,319.048)"><text x="358.797px" y="360.141px" style="font-family:'DeiGratia', fantasy;font-size:74.667px;">l</text></g><g transform="matrix(-0.800734,0.59902,-0.59902,-0.800734,846.079,483.173)"><text x="342.675px" y="382.312px" style="font-family:'DeiGratia', fantasy;font-size:74.667px;">k</text></g><g transform="matrix(-0.934989,0.354677,-0.354677,-0.934989,730.687,690.73)"><text x="302.039px" y="412.331px" style="font-family:'DeiGratia', fantasy;font-size:74.667px;">a</text></g><g transform="matrix(-0.993611,-0.112855,0.112855,-0.993611,406.479,885.47)"><text x="228.302px" y="431.23px" style="font-family:'DeiGratia', fantasy;font-size:74.667px;">r</text></g><g transform="matrix(-0.945021,-0.327008,0.327008,-0.945021,233.948,893.937)"><text x="192.121px" y="427.302px" style="font-family:'DeiGratia', fantasy;font-size:74.667px;">o</text></g><g transform="matrix(-0.819208,-0.573496,0.573496,-0.819208,48.9347,849.626)"><text x="158.388px" y="417.1px" style="font-family:'DeiGratia', fantasy;font-size:74.667px;">k</text></g><g transform="matrix(-0.619093,-0.785318,0.785318,-0.619093,-115.481,720.176)"><text x="116.915px" y="388.094px" style="font-family:'DeiGratia', fantasy;font-size:74.667px;">u</text></g><g transform="matrix(-0.18801,-0.982167,0.982167,-0.18801,-225.927,453.706)"><text x="74.584px" y="320.244px" style="font-family:'DeiGratia', fantasy;font-size:74.667px;">1</text></g><g transform="matrix(0.0856803,-0.996323,0.996323,0.0856803,-219.757,323.63)"><text x="66.449px" y="281.548px" style="font-family:'DeiGratia', fantasy;font-size:74.667px;">3</text></g><g transform="matrix(0.3849,-0.922958,0.922958,0.3849,-170.683,207.9)"><text x="70.636px" y="232.005px" style="font-family:'DeiGratia', fantasy;font-size:74.667px;">3</text></g><g transform="matrix(0.650743,-0.759298,0.759298,0.650743,-109.845,133.055)"><text x="89.711px" y="185.931px" style="font-family:'DeiGratia', fantasy;font-size:74.667px;">7</text></g></g></svg>
