<?xml version="1.0" encoding="UTF-8" standalone="no"?>
<!DOCTYPE svg PUBLIC "-//W3C//DTD SVG 1.1//EN" "http://www.w3.org/Graphics/SVG/1.1/DTD/svg11.dtd">
<svg width="100%" height="100%" viewBox="0 0 3364 1668" version="1.1" xmlns="http://www.w3.org/2000/svg" xmlns:xlink="http://www.w3.org/1999/xlink" xml:space="preserve" xmlns:serif="http://www.serif.com/" style="fill-rule:evenodd;clip-rule:evenodd;stroke-linejoin:round;stroke-miterlimit:2;">
    <g transform="matrix(1,0,0,1,-63.622,-103.913)">
        <g transform="matrix(8.20666,0.101758,-0.0879697,7.09469,-989.343,-133.738)">
            <path d="M136.666,179.667C137.604,180.916 138.549,181.38 139.502,181.061C140.455,180.741 141.733,179.525 143.335,177.414C144.938,175.302 146.791,172.572 148.895,169.225C150.999,165.877 152.37,163.332 153.007,161.588C153.644,159.845 155.263,157.409 157.864,154.281C160.465,151.152 163.656,146.93 167.437,141.612C171.218,136.295 173.868,132.582 175.387,130.474C176.906,128.366 177.558,126.841 177.343,125.897C177.128,124.954 176.524,124.465 175.531,124.431C174.538,124.397 173.233,125.226 171.615,126.918C169.998,128.61 168.272,130.995 166.438,134.071C164.604,137.147 162.152,140.713 159.081,144.769C156.01,148.825 153.226,153.125 150.731,157.671C148.236,162.217 145.995,166.04 144.009,169.139C142.022,172.239 139.63,173.757 136.833,173.695C135.81,176.394 135.754,178.384 136.666,179.667ZM140.846,188.877C141.323,191.311 142.091,192.301 143.151,191.847C144.211,191.393 145.497,190.218 147.009,188.32C148.521,186.423 150.525,183.807 153.021,180.474C155.517,177.14 158.262,173.156 161.257,168.522L157.991,165.039C153.555,172.424 150.487,177.352 148.785,179.824C147.084,182.296 144.437,185.314 140.846,188.877ZM160.78,160.932L164.184,164.748C166.024,162.237 168.065,159.086 170.307,155.296C172.549,151.506 174.781,148.015 177.002,144.823C179.223,141.632 181.034,139.09 182.435,137.198C183.836,135.305 184.776,133.839 185.256,132.798C185.737,131.757 185.547,130.934 184.688,130.328C183.828,129.722 183.009,129.671 182.23,130.177C181.451,130.682 180.303,131.989 178.784,134.096C177.265,136.204 174.386,140.356 170.147,146.552C165.907,152.747 162.785,157.541 160.78,160.932ZM167.309,167.801L172.348,172.801C178.184,165.544 182.631,159.88 185.688,155.809C188.744,151.738 190.909,148.735 192.183,146.8C193.456,144.866 194.391,143.036 194.987,141.311C195.583,139.586 195.78,138.041 195.579,136.677C195.377,135.312 194.59,134.396 193.218,133.927C191.847,133.458 190.764,134.058 189.97,135.728C189.177,137.398 187.646,139.757 185.378,142.805C183.109,145.853 180.957,148.605 178.919,151.061C176.881,153.516 174.759,156.347 172.553,159.554C170.346,162.761 168.598,165.51 167.309,167.801ZM146.612,250.378C151.024,245.516 154.564,240.872 157.231,236.448C159.897,232.023 163.143,226.165 166.966,218.874C170.79,211.583 173.987,205.347 176.558,200.168C179.128,194.988 180.747,190.952 181.414,188.06C182.081,185.168 182.931,182.316 183.964,179.503C184.996,176.691 186.061,174.378 187.157,172.565C188.253,170.752 189.256,168.886 190.167,166.969C191.078,165.051 191.637,163.473 191.845,162.235C192.053,160.997 191.896,160.099 191.373,159.542C190.85,158.985 190.148,159.478 189.266,161.023C188.384,162.567 186.926,164.616 184.892,167.168C182.858,169.721 177.501,177.1 168.82,189.307C160.139,201.513 153.664,211.087 149.394,218.028C145.125,224.968 141.727,231.843 139.2,238.653C136.673,245.463 135.534,250.244 135.785,252.996C136.035,255.748 136.799,257.215 138.077,257.398C139.355,257.58 142.2,255.24 146.612,250.378ZM136.613,229.465C138.931,223.053 142.358,216.395 146.894,209.49C151.43,202.586 155.273,197.055 158.425,192.899C161.576,188.742 165.288,183.444 169.561,177.005L164.399,172.059C163.208,173.958 162.067,176.08 160.976,178.427C159.885,180.773 158.429,182.886 156.609,184.766C154.789,186.645 152.882,189.256 150.89,192.598C148.898,195.941 146.94,198.279 145.017,199.614C143.093,200.949 141.414,201.659 139.978,201.742C138.541,201.826 137.423,201.208 136.622,199.888C135.821,198.568 135.504,197.112 135.672,195.52C135.84,193.928 136.258,192.527 136.928,191.316C137.598,190.104 137.032,188.708 135.23,187.128C133.428,185.549 133.06,182.624 134.126,178.356C135.191,174.087 135.14,170.631 133.971,167.987C132.802,165.343 131.974,161.462 131.487,156.346C131,151.229 131.064,146.886 131.679,143.318C132.294,139.749 133.437,137.287 135.108,135.932C136.779,134.577 139.104,134.152 142.084,134.658C145.064,135.165 147.629,134.608 149.78,132.987C150.102,122.273 150.435,115.049 150.779,111.315C151.123,107.582 151.049,104.474 150.556,101.992C150.064,99.51 149.411,97.836 148.598,96.969C147.785,96.102 146.902,95.626 145.949,95.542C144.996,95.457 144.36,96.441 144.041,98.492C143.722,100.544 142.907,102.02 141.598,102.922C140.288,103.824 139.045,104.036 137.868,103.558C136.692,103.08 135.645,102.119 134.728,100.676C133.811,99.232 133.554,97.668 133.955,95.984C134.357,94.301 135.332,92.421 136.88,90.344C138.573,88.421 140.014,87.473 141.202,87.498C142.391,87.523 143.546,87.606 144.669,87.747C145.792,87.888 146.931,88.295 148.086,88.968C149.242,89.641 150.322,90.762 151.328,92.331C152.333,93.9 153.161,95.809 153.813,98.057C154.465,100.305 154.432,104.541 153.715,110.765C152.997,116.989 152.815,123.737 153.169,131.01C153.522,138.282 153.189,142.929 152.171,144.948C151.073,146.325 149.529,146.713 147.538,146.112C145.546,145.51 143.778,144.882 142.232,144.228C140.686,143.573 139.322,144.324 138.14,146.481C136.959,148.637 136.676,151.94 137.294,156.388C137.911,160.836 139.11,162.331 140.889,160.873C142.668,159.416 144.367,157.283 145.987,154.476C147.607,151.668 149.904,148.449 152.879,144.818C155.853,141.187 158.3,137.46 160.219,133.636C162.139,129.812 163.858,126.846 165.377,124.739C166.896,122.631 168.788,120.424 171.055,118.12C173.321,115.815 175.279,114.875 176.929,115.298C178.578,115.721 179.647,116.318 180.135,117.087C180.623,117.856 181.069,118.998 181.471,120.515C181.874,122.031 182.62,122.594 183.71,122.204C184.8,121.813 185.893,121.689 186.988,121.831C188.083,121.974 189.181,123.021 190.284,124.973C191.387,126.926 192.587,127.694 193.886,127.277C195.185,126.86 196.831,127.591 198.825,129.469C200.671,132.679 200.931,136.514 199.607,140.972C198.282,145.431 197.537,149.062 197.37,151.866C197.203,154.67 196.768,157.607 196.066,160.679C195.363,163.75 194.307,166.491 192.897,168.901C191.486,171.311 189.947,174.826 188.279,179.446C186.611,184.066 185.035,188.722 183.551,193.414C182.067,198.106 180.747,201.28 179.589,202.934C178.432,204.589 177.228,206.908 175.977,209.892C174.727,212.877 172.662,217.321 169.781,223.227C166.901,229.132 164.477,234.127 162.511,238.212C160.545,242.296 157.884,246.68 154.527,251.363C150.532,256.174 147.537,259.595 145.54,261.629C143.544,263.662 141.506,265.124 139.428,266.013C137.349,266.903 135.657,266.651 134.35,265.258C133.044,263.865 132.076,261.963 131.446,259.552C130.816,257.141 130.934,253.135 131.799,247.535C132.664,241.934 134.269,235.911 136.613,229.465Z" style="fill-rule:nonzero;"/>
            <path d="M203.279,111.734C203.412,110.796 203.536,109.812 203.652,108.782C203.768,107.751 204.221,106.557 205.011,105.199C205.801,103.84 206.73,102.81 207.796,102.109C208.819,102.245 209.559,102.832 210.017,103.869C210.475,104.907 210.919,106.092 211.347,107.426C212.418,106.316 213.376,105.358 214.223,104.552C215.069,103.746 216.018,102.869 217.069,101.923C218.12,100.976 219.579,100.321 221.446,99.957C223.313,99.593 224.71,99.785 225.639,100.532C225.743,102.556 225.347,103.807 224.451,104.286C223.554,104.764 222.174,105.528 220.309,106.576C218.445,107.625 216.896,108.902 215.663,110.408C214.43,111.914 213.532,113.434 212.97,114.969C212.407,116.504 212.257,118.367 212.518,120.556C212.78,122.745 213.397,124.632 214.371,126.218C215.345,127.803 216.351,128.761 217.39,129.091C218.428,129.421 219.304,129.285 220.016,128.681C220.728,128.077 221.319,127.314 221.787,126.39C222.255,125.467 222.748,124.682 223.266,124.035C223.785,123.388 224.362,123.038 224.998,122.985C225.635,122.932 226.056,123.698 226.261,125.284C226.466,126.87 226.355,128.38 225.926,129.815C225.497,131.249 224.878,132.727 224.068,134.249C223.259,135.771 222.222,137.065 220.958,138.131C219.965,138.588 219.068,138.597 218.269,138.158C217.47,137.718 216.559,137.354 215.538,137.065C214.516,136.776 213.571,135.885 212.703,134.393C211.834,132.901 210.864,130.881 209.794,128.334C208.724,125.787 207.903,123.417 207.333,121.224C206.763,119.031 206.106,117.965 205.364,118.027C204.622,118.089 203.941,118.116 203.323,118.108C202.705,118.1 202.301,117.87 202.111,117.418C201.663,116.35 201.707,115.36 202.246,114.448C202.785,113.535 203.129,112.631 203.279,111.734Z" style="fill-rule:nonzero;"/>
            <path d="M241.472,117.4C242.993,116.888 244.245,115.773 245.228,114.055C246.211,112.337 246.5,110.396 246.095,108.23C245.69,106.065 244.922,104.276 243.79,102.863C242.659,101.451 241.119,100.276 239.172,99.339C237.225,98.402 235.65,97.803 234.449,97.543C233.247,97.282 232.176,97.88 231.234,99.336C230.293,100.792 230.063,102.623 230.544,104.829C231.026,107.034 231.759,109.204 232.745,111.338C233.73,113.472 235.06,115.14 236.735,116.341C238.409,117.543 239.988,117.896 241.472,117.4ZM234.892,88.061C235.895,87.773 236.82,88.189 237.667,89.31C238.515,90.431 239.845,91.416 241.658,92.264C243.472,93.113 245.289,94.071 247.109,95.136C248.929,96.202 250.435,98.184 251.625,101.082C251.984,103.755 251.705,106.607 250.788,109.638C249.87,112.668 248.784,115.272 247.528,117.449C246.271,119.627 245.214,121.572 244.356,123.284C243.497,124.997 242.331,126.246 240.856,127.03C239.506,127.029 237.883,126.378 235.987,125.077C234.091,123.777 232.577,122.518 231.445,121.3C230.314,120.083 229.27,118.194 228.315,115.632C226.407,108.948 225.461,104.883 225.478,103.437C225.495,101.991 226.36,99.909 228.075,97.192C229.789,94.475 231.123,92.41 232.079,90.997C233.034,89.584 233.972,88.605 234.892,88.061Z" style="fill-rule:nonzero;"/>
            <path d="M264.641,62.519C265.115,59.984 265.408,57.265 265.519,54.363C265.63,51.461 265.552,48.577 265.285,45.713C265.017,42.848 264.337,40.385 263.245,38.321C262.152,36.258 261.01,35.055 259.819,34.714C258.627,34.373 257.185,34.669 255.493,35.6C253.801,36.532 252.44,37.827 251.412,39.486C250.384,41.145 250.016,43.368 250.307,46.155C250.599,48.942 251.518,52.667 253.065,57.329C254.612,61.992 256.475,67.94 258.654,75.174C260.833,82.409 262.114,88.488 262.497,93.414C262.88,98.339 263.857,103.047 265.428,107.538C266.835,108.217 268.113,108.486 269.262,108.345C271.614,105.46 273.237,103.207 274.131,101.587C275.025,99.966 276.365,97.724 278.152,94.859L279.212,96.673C278.201,99.551 277.193,101.922 276.188,103.786C275.184,105.65 274.012,107.538 272.672,109.451C271.332,111.364 270.457,113.168 270.047,114.861C269.636,116.555 269.057,117.839 268.308,118.712C267.476,118.056 266.565,117.364 265.575,116.636C264.586,115.908 263.329,115.644 261.806,115.845C260.283,116.046 259.019,115.984 258.014,115.66C257.758,114.463 257.866,113.068 258.338,111.474C258.811,109.88 258.715,107.201 258.052,103.439C257.389,99.676 256.605,95.771 255.698,91.726C254.791,87.68 254.035,85.285 253.428,84.541C252.821,83.797 252.606,82.553 252.782,80.809C252.958,79.064 252.721,77.391 252.073,75.788C251.425,74.186 250.21,70.264 248.426,64.022C246.643,57.78 245.539,53.191 245.113,50.254C244.688,47.317 244.967,44.297 245.95,41.192C246.933,38.087 248.341,35.684 250.173,33.983C252.006,32.282 254.092,31.002 256.43,30.144C258.385,29.773 259.9,29.68 260.977,29.865C262.054,30.051 263.296,30.625 264.702,31.587C266.108,32.549 267.3,33.937 268.278,35.75C269.256,37.564 270.02,39.757 270.571,42.329C270.919,45.287 270.901,48.198 270.517,51.061C270.133,53.923 269.531,57.19 268.71,60.86C267.888,64.53 266.747,67.798 265.286,70.664C263.824,73.529 262.838,74.67 262.327,74.087C261.815,73.504 261.952,72.053 262.737,69.735C263.523,67.416 264.157,65.011 264.641,62.519Z" style="fill-rule:nonzero;"/>
            <path d="M283.344,95.213C284.595,92.309 285.616,90.232 286.408,88.981C287.201,87.731 288.138,86.674 289.222,85.81C290.305,84.947 290.259,83.927 289.084,82.75C287.908,81.573 286.861,80.917 285.944,80.78C285.027,80.643 284.099,80.947 283.159,81.693C282.22,82.438 281.627,83.688 281.382,85.441C281.136,87.195 281.195,88.837 281.559,90.367C281.923,91.896 282.518,93.512 283.344,95.213ZM297.346,100.895C298.877,99.189 299.865,97.684 300.31,96.38C300.756,95.076 301.087,93.514 301.304,91.696C301.521,89.878 301.964,88.782 302.633,88.409C303.303,88.035 304.09,88.392 304.994,89.478C305.127,92.274 304.821,94.327 304.077,95.638C303.333,96.95 302.464,98.826 301.471,101.268C300.479,103.71 299.017,105.854 297.085,107.7C295.154,109.547 293.258,110.683 291.397,111.107C290.214,111.226 289.135,111.152 288.161,110.887C287.187,110.622 286.054,109.992 284.763,108.998C283.471,108.004 282.22,106.563 281.01,104.676C279.799,102.789 278.841,99.644 278.134,95.241C277.514,90.592 277.482,87.131 278.038,84.86C278.594,82.588 279.171,81.076 279.77,80.322C280.369,79.568 281.086,79.105 281.922,78.933C282.758,78.76 283.399,78.172 283.844,77.168C284.29,76.165 284.889,75.341 285.643,74.698C286.396,74.056 287.257,73.625 288.227,73.405C289.902,73.384 291.036,73.944 291.628,75.086C292.219,76.229 292.822,77.15 293.434,77.849C294.047,78.548 294.736,78.772 295.501,78.52C296.267,78.268 297.038,77.83 297.813,77.206C298.589,76.583 299.424,76.099 300.317,75.754C301.21,75.41 301.832,75.808 302.184,76.946C302.109,77.884 301.729,78.853 301.043,79.854C300.358,80.854 299.518,81.824 298.525,82.764C297.531,83.704 296.2,84.958 294.531,86.527C292.863,88.095 291.212,89.95 289.58,92.09C287.947,94.23 286.423,96.581 285.007,99.145C285.938,101.336 287.101,102.792 288.496,103.514C289.891,104.235 291.332,104.406 292.819,104.025C294.307,103.644 295.816,102.6 297.346,100.895Z" style="fill-rule:nonzero;"/>
            <path d="M307.118,76.061C307.555,75.256 308,74.406 308.453,73.508C308.906,72.611 309.725,71.714 310.909,70.818C312.093,69.921 313.295,69.389 314.513,69.223C315.41,69.807 315.895,70.681 315.969,71.843C316.042,73.005 316.052,74.296 316,75.717C317.359,75.176 318.564,74.724 319.614,74.362C320.665,73.999 321.834,73.618 323.12,73.218C324.407,72.819 325.971,72.87 327.814,73.374C329.656,73.877 330.879,74.682 331.484,75.788C330.9,77.7 330.115,78.675 329.128,78.713C328.141,78.751 326.613,78.834 324.543,78.962C322.473,79.09 320.617,79.571 318.975,80.405C317.332,81.238 315.995,82.236 314.961,83.398C313.927,84.559 313.163,86.208 312.669,88.342C312.174,90.477 312.109,92.494 312.474,94.392C312.838,96.291 313.444,97.626 314.29,98.397C315.137,99.168 315.989,99.435 316.848,99.199C317.707,98.963 318.508,98.524 319.249,97.884C319.991,97.243 320.709,96.741 321.404,96.378C322.099,96.015 322.748,95.952 323.352,96.189C323.957,96.426 324.087,97.322 323.744,98.875C323.4,100.429 322.79,101.77 321.913,102.899C321.036,104.028 319.969,105.112 318.712,106.151C317.455,107.189 316.065,107.915 314.542,108.33C313.473,108.304 312.644,107.91 312.055,107.146C311.466,106.382 310.75,105.637 309.906,104.912C309.061,104.186 308.49,102.941 308.191,101.175C307.891,99.41 307.677,97.113 307.546,94.286C307.415,91.458 307.455,88.905 307.666,86.628C307.877,84.351 307.63,83.074 306.925,82.797C306.221,82.52 305.585,82.24 305.018,81.954C304.451,81.669 304.156,81.276 304.133,80.774C304.078,79.588 304.452,78.696 305.255,78.098C306.058,77.499 306.679,76.82 307.118,76.061Z" style="fill-rule:nonzero;"/>
            <path d="M348.007,85.04C348.118,81.982 348.099,80.05 347.95,79.243C347.801,78.436 347.259,77.861 346.323,77.518C345.387,77.176 344.62,76.51 344.024,75.521C343.427,74.532 342.282,73.974 340.587,73.846C338.892,73.719 337.549,73.962 336.559,74.577C335.568,75.192 334.834,76.094 334.356,77.282C333.879,78.471 333.802,79.781 334.125,81.214C334.449,82.647 335.341,83.662 336.802,84.258C338.262,84.854 339.788,84.997 341.38,84.685C342.973,84.374 345.182,84.492 348.007,85.04ZM334.54,93.509C332.817,95.254 332.325,96.853 333.063,98.306C333.801,99.759 334.712,100.512 335.797,100.564C336.882,100.617 338.762,99.713 341.438,97.854C344.114,95.995 345.78,94.441 346.438,93.193C347.096,91.945 347.34,90.917 347.172,90.108C347.004,89.3 346.252,88.784 344.916,88.559C343.58,88.335 341.958,88.668 340.048,89.558C338.139,90.449 336.303,91.766 334.54,93.509ZM361.737,100.448C359.797,101.634 358.349,102.627 357.391,103.426C356.433,104.226 355.095,105.155 353.377,106.215C351.659,107.275 350.221,107.434 349.062,106.692C347.903,105.95 347.097,104.745 346.644,103.078C346.19,101.41 345.822,100.112 345.54,99.184C343.692,100.009 342.273,100.992 341.283,102.133C340.293,103.273 339.217,104.364 338.053,105.405C336.889,106.446 335.553,107.044 334.045,107.2C332.235,106.975 330.989,106.481 330.305,105.716C329.621,104.951 328.803,104.089 327.849,103.129C326.896,102.168 326.408,100.362 326.385,97.709C327.392,95.015 329.866,92.163 333.809,89.153C332.259,88.301 331.17,87.243 330.544,85.978C329.918,84.714 329.565,83.268 329.486,81.641C329.406,80.014 329.658,78.244 330.241,76.329C330.824,74.414 331.775,72.974 333.095,72.01C334.414,71.045 335.902,70.34 337.558,69.894C339.214,69.448 340.603,69.287 341.725,69.41C342.847,69.533 344.38,68.955 346.323,67.678C348.347,68.553 350.1,69.804 351.582,71.43C353.065,73.056 353.991,74.758 354.362,76.536C354.732,78.314 354.692,79.969 354.241,81.502C353.791,83.034 353.386,85.472 353.028,88.815C352.67,92.157 352.68,94.638 353.056,96.256C353.432,97.874 354.111,98.765 355.093,98.926C356.076,99.088 357.096,99 358.156,98.663C359.216,98.326 360.04,98.194 360.63,98.268C361.221,98.343 361.641,98.729 361.893,99.427L361.737,100.448ZM335.415,59.47C338.589,53.68 341.072,49.755 342.866,47.693C344.66,45.631 346.504,44.36 348.399,43.88C350.293,43.4 352.763,43.143 355.807,43.107L356.771,44.32C356.283,47.999 354.41,50.343 351.152,51.351C347.895,52.359 345.383,53.518 343.616,54.826C341.85,56.135 340.642,57.574 339.992,59.143C339.342,60.711 338.52,61.86 337.526,62.589C336.531,63.318 335.442,63.654 334.258,63.597L334.224,61.264L335.415,59.47Z" style="fill-rule:nonzero;"/>
            <path d="M399.77,103.932C399.546,101.196 399.329,98.64 399.118,96.265C398.908,93.89 398.329,91.879 397.382,90.233C396.436,88.588 395.653,86.818 395.035,84.926C394.417,83.033 394.315,80.92 394.731,78.586C395.461,76.31 396.606,74.6 398.164,73.455C399.723,72.31 401.085,71.622 402.252,71.393C403.418,71.163 404.796,71.241 406.384,71.627C407.403,72.156 408.212,72.912 408.809,73.895C409.407,74.878 409.776,75.999 409.915,77.257C410.054,78.515 410.027,79.742 409.832,80.937C409.638,82.132 409.36,82.918 408.999,83.297C408.637,83.676 408.149,83.739 407.534,83.487C406.919,83.235 406.6,82.701 406.576,81.885C406.553,81.07 406.378,80.037 406.052,78.788C405.726,77.539 405.118,76.968 404.228,77.076C403.338,77.184 402.519,77.755 401.769,78.789C401.018,79.823 400.687,81.031 400.775,82.415C400.862,83.798 401.195,84.979 401.774,85.955C402.353,86.932 403.022,88.414 403.781,90.402C404.54,92.389 404.892,94.526 404.837,96.813C404.782,99.1 405.084,101.149 405.743,102.96C406.402,104.771 407.065,106.691 407.732,108.719C408.399,110.747 409.198,111.952 410.131,112.333C411.063,112.714 412.188,112.281 413.505,111.032C414.822,109.783 415.945,108.16 416.873,106.163C417.8,104.167 418.249,102.237 418.22,100.374C418.19,98.51 418.122,96.966 418.015,95.743C417.908,94.519 417.024,93.738 415.362,93.399C413.7,93.06 412.922,92.266 413.027,91.018C413.132,89.769 414.094,89.246 415.913,89.447C417.733,89.648 419.105,89.499 420.031,88.999C420.956,88.499 422.032,88.964 423.259,90.394C424.485,91.823 425.075,93.873 425.027,96.543C424.98,99.212 424.454,102.566 423.45,106.605C421.701,111.489 419.517,114.327 416.896,115.118C414.275,115.91 412.407,116.893 411.294,118.067C410.18,119.241 409.284,119.953 408.606,120.202C407.927,120.452 407.141,120.476 406.246,120.273C405.509,119.6 404.694,118.83 403.801,117.962C402.907,117.095 402.077,115.226 401.311,112.358C400.545,109.489 400.032,106.68 399.77,103.932Z" style="fill-rule:nonzero;"/>
            <path d="M447.686,114.016C448.791,111.235 449.408,109.439 449.535,108.627C449.662,107.815 449.349,107.045 448.595,106.317C447.841,105.589 447.35,104.637 447.123,103.46C446.895,102.284 446.018,101.264 444.492,100.402C442.965,99.54 441.643,99.177 440.525,99.311C439.407,99.445 438.432,99.957 437.6,100.847C436.769,101.737 436.267,102.916 436.097,104.384C435.926,105.851 436.419,107.182 437.575,108.374C438.73,109.567 440.096,110.369 441.671,110.779C443.247,111.19 445.252,112.268 447.686,114.016ZM432.448,115.942C430.282,116.8 429.302,118.064 429.508,119.732C429.714,121.4 430.31,122.496 431.297,123.021C432.284,123.546 434.32,123.535 437.405,122.989C440.491,122.443 442.542,121.737 443.56,120.87C444.578,120.004 445.142,119.16 445.251,118.339C445.36,117.517 444.834,116.709 443.672,115.915C442.51,115.121 440.899,114.717 438.84,114.703C436.782,114.689 434.651,115.102 432.448,115.942ZM455.336,134.297C453.152,134.543 451.486,134.826 450.338,135.145C449.19,135.465 447.647,135.738 445.71,135.964C443.773,136.191 442.39,135.707 441.561,134.512C440.732,133.317 440.381,131.849 440.509,130.106C440.636,128.364 440.721,127.002 440.764,126.019C438.784,125.972 437.149,126.258 435.859,126.88C434.569,127.501 433.215,128.037 431.796,128.49C430.378,128.942 428.946,128.909 427.5,128.392C425.899,127.39 424.908,126.385 424.526,125.377C424.144,124.37 423.67,123.213 423.103,121.906C422.536,120.599 422.677,118.713 423.526,116.249C425.34,114.198 428.565,112.645 433.2,111.59C432.045,110.122 431.386,108.665 431.221,107.22C431.057,105.775 431.204,104.283 431.664,102.743C432.124,101.203 432.938,99.675 434.105,98.159C435.273,96.643 436.625,95.729 438.162,95.415C439.699,95.101 441.307,95.102 442.986,95.416C444.664,95.731 446.002,96.191 447,96.797C447.998,97.403 449.605,97.542 451.822,97.212C453.408,98.91 454.619,100.836 455.458,102.992C456.296,105.147 456.595,107.128 456.355,108.936C456.114,110.743 455.534,112.257 454.615,113.478C453.695,114.698 452.522,116.776 451.094,119.712C449.666,122.647 448.861,124.946 448.679,126.609C448.496,128.271 448.832,129.393 449.688,129.974C450.544,130.554 451.517,130.921 452.608,131.074C453.699,131.227 454.505,131.467 455.027,131.795C455.549,132.122 455.811,132.664 455.815,133.42L455.336,134.297ZM444.422,84.831C449.257,80.867 452.843,78.325 455.179,77.204C457.515,76.084 459.638,75.717 461.548,76.105C463.458,76.492 465.828,77.338 468.656,78.641L469.151,80.186C467.492,83.375 464.99,84.722 461.645,84.225C458.301,83.728 455.596,83.698 453.533,84.134C451.469,84.57 449.879,85.371 448.764,86.537C447.648,87.703 446.511,88.405 445.352,88.644C444.192,88.882 443.074,88.714 441.998,88.142L442.732,85.968L444.422,84.831Z" style="fill-rule:nonzero;"/>
            <path d="M490.502,106.109C492.409,104.744 494.304,103.101 496.187,101.179C498.07,99.257 499.81,97.191 501.408,94.98C503.005,92.769 504.066,90.493 504.592,88.151C505.118,85.809 505.073,84.023 504.458,82.794C503.843,81.565 502.659,80.569 500.904,79.807C499.15,79.045 497.4,78.811 495.654,79.107C493.908,79.402 492.269,80.638 490.736,82.816C489.204,84.993 487.524,88.343 485.697,92.868C483.869,97.392 481.46,103.073 478.471,109.908C475.481,116.744 472.586,122.031 469.787,125.768C466.988,129.506 464.736,133.587 463.032,138.013C463.586,139.656 464.305,140.907 465.191,141.766C468.619,141.722 471.147,141.51 472.776,141.129C474.405,140.749 476.731,140.308 479.754,139.808L479.361,141.949C476.868,143.105 474.693,143.911 472.836,144.368C470.979,144.826 468.99,145.161 466.869,145.373C464.749,145.585 463.019,146.108 461.68,146.942C460.341,147.776 459.14,148.184 458.077,148.167C457.908,147.019 457.706,145.78 457.472,144.451C457.238,143.121 456.53,141.892 455.348,140.763C454.166,139.634 453.327,138.539 452.831,137.477C453.398,136.433 454.341,135.554 455.661,134.841C456.981,134.128 458.582,132.19 460.463,129.026C462.345,125.862 464.23,122.498 466.118,118.935C468.007,115.372 468.972,113.08 469.014,112.058C469.056,111.037 469.681,109.994 470.888,108.929C472.096,107.865 472.973,106.507 473.521,104.855C474.068,103.203 475.665,99.468 478.312,93.651C480.958,87.833 483.048,83.728 484.58,81.336C486.113,78.943 488.186,77.079 490.801,75.742C493.415,74.405 495.888,73.91 498.219,74.255C500.549,74.6 502.793,75.449 504.95,76.8C506.538,78.17 507.648,79.368 508.28,80.393C508.912,81.419 509.417,82.851 509.794,84.689C510.171,86.528 510.135,88.484 509.685,90.557C509.235,92.631 508.401,94.789 507.183,97.032C505.583,99.376 503.76,101.382 501.712,103.049C499.664,104.717 497.212,106.482 494.358,108.346C491.504,110.209 488.678,111.527 485.881,112.299C483.083,113.071 481.688,113.042 481.696,112.212C481.704,111.382 482.702,110.488 484.69,109.533C486.678,108.577 488.615,107.436 490.502,106.109Z" style="fill-rule:nonzero;"/>
            <path d="M499.916,132.142C504.249,132.696 507.995,132.566 511.156,131.75C514.316,130.934 516.974,129.96 519.128,128.828C521.283,127.695 522.964,125.972 524.171,123.657C525.379,121.342 525.957,119.134 525.905,117.031C525.854,114.929 525.454,113.219 524.707,111.903C523.96,110.586 522.689,109.745 520.894,109.381C519.1,109.017 517.243,109.024 515.324,109.402C513.405,109.78 511.924,110.656 510.882,112.029C509.839,113.403 508.826,114.343 507.843,114.851C506.859,115.359 506.187,116.629 505.826,118.661C505.466,120.693 504.754,122.712 503.691,124.72C502.628,126.728 501.739,128.012 501.026,128.573C500.313,129.134 499.943,130.324 499.916,132.142ZM491.594,146.775C492.169,148.758 492.983,150.036 494.037,150.607C495.09,151.178 496.75,151.427 499.015,151.353C501.28,151.279 502.901,150.851 503.877,150.068C504.853,149.285 505.388,147.868 505.48,145.815C505.573,143.763 505.21,141.984 504.392,140.481C503.574,138.977 502.522,138.243 501.235,138.28C499.948,138.317 498.847,138.488 497.932,138.794C497.017,139.1 496.356,139.534 495.952,140.095C495.547,140.656 495.286,141.445 495.169,142.463C495.052,143.48 494.467,144.255 493.415,144.786C492.363,145.317 491.756,145.98 491.594,146.775ZM482.725,150.618C481.117,151.207 480.315,151.89 480.32,152.668C480.324,153.446 480.668,154.164 481.35,154.823C482.032,155.481 483.036,156.406 484.362,157.598C485.688,158.789 486.416,160.027 486.544,161.311C486.672,162.594 487.425,163.902 488.804,165.234C490.184,166.566 491.604,167.253 493.065,167.295C494.526,167.338 495.674,167.048 496.509,166.426C497.343,165.804 497.801,165.205 497.883,164.629C497.964,164.053 497.906,163.491 497.709,162.944C497.513,162.397 496.873,162.018 495.792,161.806C494.71,161.595 493.849,161.076 493.21,160.251C492.572,159.426 491.965,158.841 491.392,158.495C490.818,158.149 490.431,157.047 490.23,155.187C488.137,154.951 486.789,154.378 486.185,153.468C485.582,152.558 485.27,151.706 485.251,150.914C485.231,150.122 484.389,150.023 482.725,150.618ZM477.594,157.622C476.468,155.404 474.913,153.442 472.93,151.735C470.947,150.029 470.687,147.948 472.15,145.493C474.172,145.898 476.044,146.263 477.765,146.586C479.486,146.91 481.229,146.614 482.994,145.701C484.76,144.787 485.759,143.135 485.994,140.743C486.228,138.351 486.832,136.837 487.806,136.201C488.779,135.564 489.807,134.995 490.89,134.493C491.972,133.991 492.946,132.998 493.812,131.514C494.677,130.029 495.138,128.019 495.193,125.484C495.248,122.949 495.685,121.006 496.505,119.656C497.325,118.306 498.457,117.183 499.901,116.286C501.345,115.39 502.508,113.85 503.389,111.667C504.271,109.483 505.705,107.923 507.693,106.986C509.68,106.05 511.138,105.241 512.067,104.561C512.995,103.88 514.864,103.678 517.675,103.952C520.486,104.227 522.821,104.875 524.681,105.898C526.541,106.92 527.951,107.568 528.911,107.841C529.872,108.114 530.906,108.338 532.013,108.515C532.381,109.287 532.722,110.687 533.033,112.713C533.345,114.74 533.368,116.74 533.101,118.714C532.834,120.687 532.308,122.574 531.523,124.375C530.738,126.175 529.563,127.733 527.997,129.047C526.432,130.361 524.559,131.513 522.379,132.502C520.199,133.491 517.733,133.951 514.98,133.881C512.227,133.811 510.795,134.228 510.683,135.131C510.571,136.035 510.92,137.279 511.731,138.865C512.541,140.45 512.978,142.107 513.043,143.836C513.107,145.564 513.017,147.114 512.774,148.485C512.53,149.856 511.869,151.092 510.792,152.194C509.714,153.295 508.194,153.85 506.233,153.86C504.271,153.87 502.417,153.909 500.67,153.978C498.923,154.046 498.061,154.493 498.083,155.317C498.105,156.142 498.687,157.135 499.829,158.297C500.97,159.459 502.021,160.979 502.98,162.857C503.939,164.736 504.817,166.46 505.612,168.031C506.407,169.602 507.451,170.596 508.745,171.013C510.039,171.429 511.105,171.878 511.941,172.358C512.777,172.838 513.246,173.365 513.347,173.938C513.447,174.512 513.31,175.093 512.936,175.684C512.733,175.964 512.186,176.046 511.294,175.928C510.402,175.81 509.351,175.644 508.143,175.429C506.935,175.214 506.009,174.751 505.365,174.04C504.721,173.329 504.127,172.458 503.584,171.429C503.042,170.399 502.674,170.178 502.481,170.765C502.289,171.353 501.611,171.561 500.449,171.39C499.286,171.22 498.291,171.048 497.465,170.874C496.638,170.701 495.884,170.553 495.201,170.429C494.519,170.306 493.987,170.58 493.604,171.252C493.222,171.924 492.312,172.206 490.874,172.096C489.435,171.986 488.227,171.772 487.249,171.452C486.271,171.132 485.524,170.724 485.009,170.226C484.615,169.846 484.173,169.211 483.683,168.321C483.193,167.432 482.753,166.902 482.361,166.732C481.969,166.562 481.366,165.563 480.551,163.735C479.735,161.906 478.75,159.869 477.594,157.622Z" style="fill-rule:nonzero;"/>
            <path d="M528.935,186.929C530.961,184.96 532.181,183.64 532.596,182.969C533.011,182.297 533.012,181.446 532.599,180.416C532.186,179.386 532.093,178.282 532.322,177.106C532.551,175.929 532.134,174.574 531.072,173.041C530.01,171.508 528.949,170.525 527.889,170.095C526.828,169.664 525.757,169.645 524.677,170.039C523.596,170.433 522.708,171.251 522.012,172.494C521.316,173.737 521.27,175.183 521.874,176.832C522.479,178.482 523.418,179.881 524.691,181.031C525.964,182.18 527.378,184.146 528.935,186.929ZM514.445,181.142C512.169,180.848 510.817,181.507 510.387,183.117C509.958,184.727 510.092,186.013 510.791,186.975C511.489,187.937 513.334,188.933 516.325,189.963C519.317,190.994 521.433,191.369 522.673,191.088C523.913,190.808 524.735,190.323 525.137,189.634C525.539,188.945 525.361,187.955 524.603,186.663C523.846,185.371 522.539,184.21 520.682,183.18C518.826,182.15 516.747,181.471 514.445,181.142ZM528.364,209.046C526.299,208.19 524.688,207.623 523.531,207.344C522.375,207.066 520.879,206.551 519.044,205.799C517.209,205.046 516.137,203.925 515.829,202.436C515.52,200.946 515.745,199.445 516.504,197.932C517.262,196.42 517.842,195.23 518.244,194.363C516.471,193.342 514.886,192.793 513.491,192.717C512.095,192.642 510.673,192.458 509.223,192.166C507.774,191.875 506.491,191.138 505.374,189.955C504.297,188.258 503.771,186.86 503.798,185.76C503.825,184.661 503.823,183.38 503.793,181.918C503.763,180.456 504.586,178.821 506.264,177.012C508.662,176.054 512.151,176.243 516.731,177.579C516.23,175.681 516.171,174.038 516.556,172.65C516.94,171.262 517.625,169.986 518.609,168.82C519.594,167.655 520.894,166.675 522.509,165.882C524.124,165.088 525.685,164.929 527.19,165.404C528.696,165.88 530.15,166.675 531.551,167.789C532.953,168.902 533.993,169.979 534.672,171.02C535.35,172.061 536.752,172.98 538.879,173.778C539.685,176.096 540.07,178.437 540.032,180.799C539.994,183.162 539.533,185.102 538.649,186.617C537.764,188.133 536.68,189.216 535.398,189.865C534.116,190.514 532.288,191.813 529.913,193.762C527.538,195.712 525.962,197.393 525.183,198.806C524.404,200.219 524.294,201.399 524.853,202.347C525.413,203.295 526.157,204.107 527.087,204.784C528.017,205.461 528.658,206.077 529.008,206.631C529.359,207.185 529.397,207.805 529.121,208.49L528.364,209.046Z" style="fill-rule:nonzero;"/>
        </g>
        <g transform="matrix(6.39945,0,0,5.53235,-400.596,412.952)">
            <path d="M302.506,105.111C303.244,104.708 303.842,105.762 304.301,108.271C303.482,108.658 301.441,109.166 298.178,109.796L290.5,110.906L285.639,111.8L284.878,108.688C285.116,106.879 286.372,106.211 288.646,106.682C290.92,107.154 292.416,106.611 293.135,105.054C293.137,98.199 292.148,89.795 290.166,79.842C288.293,83.459 287.027,86.072 286.367,87.68C285.707,89.288 285.109,90.458 284.573,91.192C284.036,91.925 283.41,91.669 282.695,90.422C284.454,84.723 286.898,79.422 290.025,74.52C293.551,74.088 295.354,76.302 295.434,81.163C295.515,86.024 296.589,94.063 298.656,105.28L302.506,105.111Z" style="fill-rule:nonzero;"/>
            <path d="M307.963,97.336C308.675,97.501 308.794,97.924 308.318,98.603C307.842,99.283 307.937,100.303 308.604,101.662C309.27,103.022 311.058,103.849 313.967,104.142C316.877,104.436 319.079,104.127 320.574,103.215C322.069,102.303 323.032,100.648 323.463,98.252C323.894,95.855 323.881,93.826 323.422,92.167C322.963,90.507 322.072,89.35 320.749,88.697C319.426,88.044 317.713,88.231 315.611,89.257C313.509,90.284 312.229,90.119 311.772,88.76C314.183,84.711 318.25,80.086 323.971,74.886L319.814,74.704C316.689,74.817 314.211,75.627 312.38,77.134C310.549,78.641 309.007,79.503 307.752,79.721C306.497,79.938 305.714,79.521 305.402,78.47C305.09,77.42 304.844,75.316 304.665,72.159C306.169,72.514 309.465,72.435 314.553,71.923L322.222,71.107C326.281,70.904 328.409,71.203 328.604,72.005C328.765,72.628 328.86,73.24 328.889,73.842C328.974,75.587 327.636,77.303 324.874,78.991C322.113,80.68 319.625,82.878 317.409,85.587C320.953,84.995 323.647,85.529 325.488,87.189C327.33,88.85 328.434,90.769 328.801,92.948C329.168,95.127 329.134,97.392 328.701,99.744C328.267,102.095 327.155,104.024 325.363,105.528C323.571,107.033 321.192,107.882 318.228,108.074C315.706,108.239 313.555,108.009 311.777,107.385C309.999,106.762 308.648,105.922 307.722,104.865C306.797,103.809 306.298,102.529 306.225,101.025C306.209,100.694 306.243,100.33 306.328,99.932C306.732,98.035 307.276,97.17 307.963,97.336Z" style="fill-rule:nonzero;"/>
            <path d="M335.341,95.996C336.035,96.244 336.116,96.678 335.583,97.298C335.049,97.919 335.054,98.944 335.597,100.375C336.14,101.807 337.846,102.84 340.715,103.475C343.583,104.11 345.801,104.062 347.369,103.331C348.936,102.6 350.04,101.068 350.68,98.734C351.32,96.401 351.485,94.381 351.175,92.676C350.864,90.971 350.08,89.715 348.821,88.909C347.563,88.103 345.843,88.087 343.661,88.861C341.479,89.635 340.221,89.319 339.886,87.914C342.642,84.17 347.094,80.049 353.243,75.55L349.124,74.879C346.006,74.623 343.47,75.136 341.515,76.42C339.561,77.703 337.95,78.379 336.683,78.448C335.416,78.516 334.673,78.009 334.456,76.927C334.238,75.845 334.179,73.723 334.278,70.561C335.743,71.092 339.029,71.402 344.136,71.492L351.836,71.585C355.893,71.861 357.983,72.409 358.107,73.23C358.212,73.869 358.252,74.489 358.228,75.091C358.159,76.837 356.676,78.387 353.781,79.741C350.885,81.095 348.216,82.989 345.773,85.422C349.351,85.25 351.983,86.099 353.669,87.968C355.355,89.837 356.284,91.877 356.457,94.088C356.63,96.298 356.397,98.548 355.759,100.836C355.12,103.124 353.844,104.911 351.928,106.197C350.013,107.482 347.573,108.046 344.607,107.889C342.083,107.755 339.964,107.273 338.25,106.443C336.536,105.613 335.266,104.618 334.438,103.458C333.611,102.298 333.227,100.966 333.287,99.461C333.3,99.13 333.367,98.772 333.486,98.386C334.055,96.546 334.673,95.75 335.341,95.996Z" style="fill-rule:nonzero;"/>
            <path d="M368.512,107.994C368.902,108.429 368.7,109.064 367.905,109.899C365.665,109.504 363.881,108.998 362.552,108.383C361.224,107.768 360.671,105.819 360.893,102.536C361.293,99.498 363.441,96.845 367.336,94.576C371.232,92.307 374.705,89.743 377.756,86.883C380.807,84.023 382.405,81.646 382.549,79.752L378.559,78.545C375.735,77.986 373.293,78.218 371.235,79.242C369.177,80.265 367.515,80.734 366.248,80.648C364.982,80.561 364.282,79.973 364.149,78.883C364.016,77.793 364.156,75.684 364.568,72.557C365.981,73.233 369.222,73.927 374.292,74.638L381.517,75.593C385.551,76.365 387.578,77.18 387.597,78.036C387.669,78.689 387.667,79.298 387.593,79.864C387.365,81.592 386.443,83.09 384.827,84.359C382.544,86.09 379.841,88.554 376.719,91.751C373.597,94.949 371.174,97.341 369.45,98.926C367.726,100.511 366.827,101.991 366.751,103.364C366.675,104.737 366.86,105.737 367.304,106.364C367.748,106.991 368.151,107.535 368.512,107.994Z" style="fill-rule:nonzero;"/>
        </g>
    </g>
</svg>
